<svg width="64" height="20" viewBox="0 0 64 20" fill="none" xmlns="http://www.w3.org/2000/svg">
<path d="M54.13 20C52.9889 19.7153 51.8478 19.7153 50.7067 19.4306C47.2834 18.5765 44.7159 16.5836 44.1454 12.8826C43.5748 9.4662 44.7159 6.61921 46.9981 4.05693C48.7098 2.34874 50.7067 1.20996 53.2742 0.640569C56.6975 -0.213523 59.8355 -0.213523 63.2588 0.640569C64.1147 0.925267 64.1147 0.925293 63.8294 1.77938C63.5441 3.20287 63.2589 4.34164 62.9736 5.76513C62.9736 6.33453 62.6883 6.61921 62.1178 6.33452C61.8325 6.33452 61.8325 6.33452 61.5472 6.33452C60.9767 6.33452 60.6914 6.33451 60.6914 5.48042C60.6914 4.05693 59.8355 3.20287 58.4092 3.20287C56.127 2.91817 54.4153 3.77226 52.9889 5.19574C51.2773 7.18863 50.7067 9.46621 50.992 11.7438C51.2773 14.0214 53.5595 16.0142 56.127 16.2989C57.8386 16.5836 59.8356 16.2989 61.5472 15.7295C62.403 15.4448 62.403 15.7295 62.403 16.5836C62.403 16.8683 62.403 17.153 62.1178 17.7224C61.8325 19.1459 61.8325 19.1459 60.4061 19.4306C59.265 19.7153 58.1239 19.7153 56.9828 20C56.6975 20 56.4122 20 56.127 20C55.2711 20 54.7006 20 54.13 20Z" fill="#EE2A2A"/>
<path d="M11.4456 8.83379C12.913 7.6584 14.6739 6.18918 16.1413 4.71994C16.7283 4.13225 17.3152 3.54455 17.9022 3.25071C18.4891 2.66301 18.4891 2.66298 17.9022 2.07529C17.6087 2.07529 17.6087 1.78145 17.6087 1.4876C17.6087 1.19376 17.6087 0.899899 17.9022 0.606051C17.9022 0.312204 18.1956 0.0183655 18.4891 0.0183655C21.1304 0.0183655 23.7717 0.0183655 26.4131 0.0183655C27 0.0183655 27 0.312204 27 0.606051C27 0.899899 27 1.19376 26.7065 1.4876C26.7065 1.78145 26.413 2.07529 26.1196 2.07529C24.9456 2.36914 24.0652 2.66298 23.1848 3.54453C21.1304 5.30761 19.0761 7.0707 16.7283 8.83379C17.0217 9.42148 17.3152 9.71533 17.6087 10.303C19.0761 12.0661 20.5435 14.1231 21.7174 15.8862C22.3043 16.7677 23.1848 17.6492 24.3587 17.6492C24.6521 17.6492 24.9457 17.9431 24.9457 18.2369C24.9457 18.5307 24.9456 19.1185 24.6522 19.4123C24.6522 19.7062 24.3587 19.7061 24.0652 19.7061C22.3043 19.7061 20.5435 19.7061 18.7826 19.7061C17.0217 19.7061 15.5544 18.8246 14.6739 17.3554C13.5 15.5923 12.3261 13.8292 11.1521 11.7723C10.8587 11.4784 10.8587 11.1846 10.5652 10.8907C10.2717 12.3599 9.97823 13.5354 9.68475 15.0046C9.68475 15.2985 9.68478 15.5923 9.3913 15.8862C9.09782 16.4738 9.39129 17.0615 9.97825 17.3554C10.5652 17.6492 10.5652 17.9431 10.5652 18.5308C10.2717 20 10.5652 20 8.80435 20C6.16305 20 3.5217 20 0.880399 20C-3.586e-05 20 0 20 0 18.8246C0 17.9431 0.29346 17.6492 1.1739 17.3554C1.76085 17.0615 2.34781 16.4738 2.64129 15.8862C3.22824 14.7108 3.22825 13.2415 3.52173 12.0661C4.10869 9.4215 4.69562 7.0707 5.28257 4.42608C5.57605 3.54453 5.28261 2.66298 4.40218 2.07529C4.1087 2.07529 4.10868 1.78145 4.10868 1.4876C4.40216 -0.275482 4.40218 0.0183655 5.86957 0.0183655C8.51087 0.0183655 10.8587 0.0183655 13.5 0.0183655C14.3804 0.0183655 14.3804 0.31224 14.3804 1.19378C14.3804 1.78148 14.0869 2.36917 13.5 2.66302C13.2065 2.66302 12.913 3.25068 12.6195 3.54453C12.0326 5.01376 11.7391 6.77686 11.4456 8.83379C11.1522 8.53994 11.4456 8.83379 11.4456 8.83379Z" fill="#EE2A2A"/>
<path d="M35 8.69566C36.1636 8.69566 37.3272 8.69566 38.4909 8.69566C39.0727 8.69566 39.9455 8.69566 40.5273 8.69566C41.1091 8.69566 41.4 8.98552 41.1091 9.56524C40.8182 10.4348 40.8182 11.0145 40.5273 11.8841C40.5273 12.4638 40.2364 12.4638 39.6545 12.4638C37.9091 12.4638 36.1636 12.4638 34.1272 12.4638C33.5454 12.4638 33.2546 12.4638 33.2546 13.0435C33.2546 13.9131 32.9636 14.7826 32.6727 15.6522C32.3818 16.5217 32.6727 17.1015 33.2546 17.3913C33.8364 17.6812 33.8364 17.971 33.8364 18.5507C33.5455 20 33.8363 20 32.0909 20C30.0545 20 28.0182 20 25.9818 20C25.1091 20 24.8182 19.7102 25.1091 18.8406C26.2727 14.2029 27.1454 9.56522 28.3091 4.92753C28.6 3.47826 28.6 3.18842 27.4364 2.31885C27.1455 2.31885 27.1454 2.02901 27.1454 1.73915C27.4364 1.7643e-05 27.1455 0 28.8909 0C33.8364 0 39.0727 0 44.0182 0C44.8909 0 45.1818 0.289838 44.8909 1.1594C44.6 2.60868 44.3091 3.76813 44.0182 5.2174C44.0182 5.79712 43.7273 5.79711 43.1454 5.79711C42.8545 5.79711 42.8545 5.79711 42.5636 5.79711C41.4 5.79711 41.4 5.79712 41.4 4.6377C41.4 3.76814 40.8182 3.18843 39.6545 3.18843C38.2 3.18843 37.0363 3.18843 35.5818 3.18843C35.2909 3.18843 35 3.47826 35 3.47826C35.5818 5.50724 35.2909 6.95653 35 8.69566Z" fill="#EE2A2A"/>
</svg>
